<svg version="1" xmlns="http://www.w3.org/2000/svg" width="666.667" height="666.667" viewBox="0 0 500.000000 500.000000"><path d="M248.1 2.8c-.6 1.1-.7 2.2-.4 2.6.3.3.2.6-.4.6-.9 0-2.4 3.4-2.2 4.9 0 .2-.3.7-.8 1-1 .7-16.5 31.8-16.3 32.7.1.4-.2 1-.7 1.3-.4.3-4.6 8.2-9.2 17.6-4.6 9.3-8.9 17.7-9.7 18.5-.7.8-1.3 1.9-1.3 2.5 0 1.3-3.3 8.8-4.2 9.5-.3.3-1.6 2.9-2.9 5.7-1.3 2.9-2.7 5.3-3.2 5.3-.4 0-.7.3-.6.7.5 1.4-2.4 7.3-3.5 7.3-.6 0-.8.3-.4.6.3.3-1.5 4.7-4.1 9.7-2.5 5.1-4.5 9.4-4.3 9.6.1.2-.1.7-.6 1-.9.6-3 5-3.1 6.5 0 .5-.4 1.2-.9 1.5-.8.5-4.6 7.9-4.8 9.1 0 .3-.3.9-.6 1.5-3.7 6.1-6.7 12.4-6.2 12.9.4.3.2.6-.4.6-.9 0-2.4 3.4-2.2 4.9 0 .2-.3.7-.8 1-1.1.8-8.7 16.4-8.5 17.3.1.5-.2.8-.7.8-.8 0-1.7 2.1-1.9 4.4 0 .5-.4 1.2-.9 1.5-.9.6-8.3 15.7-8.2 16.7 0 .4-.3 1-.8 1.3-1 .7-11.1 21.2-11.1 22.5 0 .5-.4 1.2-.9 1.5-1.5 1.1-4.3 6.8-3.6 7.5.3.3.2.6-.4.6-.9 0-2.1 2.7-2.1 4.7 0 .3-.4.9-.9 1.2-1.1.8-4.4 7.4-4.2 8.5 0 .5-.3 1.2-.8 1.5-1 .7-15.1 29.2-15.1 30.5 0 .5-.4 1.2-.9 1.5-.9.6-3 5-3.1 6.5 0 .5-.4 1.2-.9 1.5-.9.6-4.2 7.2-4.1 8.1.1.3-1.1 2.4-2.5 4.7-1.5 2.4-2.7 4.7-2.7 5.3 0 .5-.5 1-1.2 1-.6 0-.8.3-.5.7.4.3-.4 2.5-1.8 4.8l-2.4 4.3 2.8 3.8c3.6 5 14.1 14.4 16.1 14.4.6 0 1 .3 1 .7 0 .7 6.2 3.9 12.5 6.4 13.6 5.5 35 5.8 49.4.5 14.7-5.4 30-20 36.1-34.6 1.3-3 3-7.1 3.8-9 .9-1.9 1.6-3.7 1.7-4 0-.3 1.1-2.8 2.4-5.5 1.2-2.8 2.4-5.5 2.5-6 .1-.6 1-2.5 1.9-4.2 1-1.8 1.5-3.3 1.2-3.3-.3 0 .1-1 .9-2.3 1.1-1.8 1.9-4 3.1-8.7 0-.3.6-2.1 1.3-4.1.7-2 1.5-4.6 1.7-5.8.3-1.1.7-2.9 1-3.8.2-1 1-4.1 1.6-6.8.6-2.8 1.7-5.3 2.3-5.7.7-.5.6-.8-.4-.8-1.3 0-1.3-.1 0-1 .8-.5 1.2-1 .8-1-.4 0-.4-1 .1-2.3.5-1.3 1.2-4.1 1.5-6.1.3-2.1 1-4.5 1.5-5.4.5-.9.9-2 .9-2.5.1-1.8 2.4-11.9 5.2-22.2 1.1-4.4 2.2-8.7 2.4-9.5.2-.8 1.2-4.1 2.1-7.4.9-3.2 1.8-6.4 1.9-7 .1-.6.4-1.6.7-2.1.4-.6 1-2.4 1.4-4 1.2-4.4 1.2-4.5 1.5-5 .1-.3.3-.8.4-1.3.1-.4.5-1.3.9-2 .5-.6.5-1.2.1-1.2-.3 0 .1-1.1 1-2.5s1.4-2.5 1.2-2.5c-.3 0 .1-1.2.9-2.7.8-1.5 1.2-3 .9-3.5-.3-.4-.1-.8.4-.8s.9-.6.9-1.3c0-1.2 11.2-24.7 12.3-25.7 1.1-1.1 5-7 5-7.6 0-2.1 15.5-18.6 23.7-25.1l4-3.2-18.8-37.5c-10.3-20.6-18.5-37.7-18.2-38 .4-.3.2-.6-.3-.6-.6 0-2.8-3.7-4.9-8.3-2.2-4.5-4.4-8.5-4.8-8.8-.5-.3-.8-1-.7-1.5.3-1.8-1.9-1.5-2.9.4zM315.4 145.7c-5 4.9-10.6 11.7-11.3 13.7-.2.6-.9 1.8-1.6 2.6-2.2 2.7-8.5 14.9-8.5 16.5 0 .8-.5 1.5-1.2 1.5-.6 0-.9.3-.6.6.4.3-.7 3.8-2.3 7.7-1.7 4-3.1 7.9-3.3 8.7-.2.8-.6 2.2-.9 3-.9 2.1-4 13.5-3.8 13.5.1 0-.3 1.3-.9 3-1.2 3-1.6 4.7-2.6 9.5-.3 1.4-.9 2.6-1.3 2.8-.4.1-.6 1.6-.5 3.2.1 1.7-.2 3-.7 3-.5 0-.9 1.1-.9 2.4 0 1.2-.4 3.6-1 5.2-.5 1.6-1.2 4.2-1.4 5.9-.2 1.6-.6 3.8-1 4.7-.3 1-.8 2.4-1 3.1-.2.7.7 3.5 1.9 6.2 1.3 2.7 2.2 5.2 1.9 5.7-.3.4 0 .8.5.8.6 0 1.1.6 1.1 1.4 0 .8.7 2.7 1.5 4.3.8 1.5 2 4.3 2.7 6 .7 1.8 1.6 3.3 2 3.3.4 0 .5.7.2 1.5-.4.8-.2 1.5.4 1.5.9 0 2.6 5 2.2 6.6-.1.4.2 1 .7 1.3 1.5 1.1 3.4 5.2 2.8 6.1-.4.6-.2 1 .3 1 .8 0 3.1 4.9 3.3 7 0 .3.5 1.1 1.1 1.7.6.7.7 1.3.2 1.3-.5 0-.4.4.1.8.6.4 3.7 7 7 14.7 3.2 7.7 7.4 17.4 9.3 21.5 1.9 4.1 3.5 8.1 3.5 8.7 0 .7.4 1.3.9 1.3.4 0 .8.6.8 1.2 0 1.9 6.3 16.2 7.5 17 .5.4.7.8.3.8-.6 0 .4 2.8 5.7 14.5 1.2 2.7 2.8 6.7 3.6 8.7.7 2.1 1.6 3.8 1.9 3.8.4 0 .7.6.7 1.3 0 .7 1.3 4.2 3 7.8 1.6 3.5 3.8 8.5 4.8 11.1 1.2 3.2 2.2 4.5 3.1 4.1.8-.3 1.4-.8 1.4-1.2 0-.3 1.1-1.9 2.5-3.5s2.5-3.2 2.5-3.5c0-.3 1.1-2 2.5-3.6 3.4-4.2 3.6-4.4 7-9.5 1.6-2.5 3.2-4.7 3.5-5 1.6-1.6 11-16 11-16.9 0-.6.4-1.1.9-1.1s2.1-2 3.5-4.4c1.4-2.5 3.3-5.2 4.2-6 .8-.9 1.3-1.6 1-1.6-.8 0 6.6-11.4 7.7-11.8.4-.2.7-.7.7-1.2 0-.4 2.9-5.5 6.4-11.4 3.6-5.8 6.2-10.6 5.8-10.6-.4 0-.2-.4.4-.8.6-.4 2.3-3.1 3.8-6l2.7-5.3-46.1-92.2c-25.3-50.7-46.2-92.3-46.4-92.4-.1-.2-2.5 1.8-5.2 4.4zM432.4 368.9c.4.6.3 1.1-.2 1.1s-1.5 1.3-2.2 3c-.7 1.6-1.7 3-2.2 3-.5 0-.6.4-.3 1 .3.5.1 1-.4 1-.6 0-1.1.5-1.1 1.2 0 .6-1.1 2.6-2.5 4.3-1.3 1.8-2.1 3.5-1.8 3.9.4.3.2.6-.3.6s-2 2-3.4 4.5-2.8 4.5-3.3 4.5c-.4 0-.5.4-.2 1 .3.5.1 1-.5 1s-1.4.8-1.7 1.7c-.9 2.3-10.6 16.7-11.5 17.1-.5.2-.8 1-.8 1.8s-.4 1.4-1 1.4c-.5 0-1 .6-1 1.4 0 .8-.3 1.6-.7 1.8-.5.2-2.8 3.2-5.2 6.8-2.5 3.6-4.8 6.6-5.3 6.8-.4.2-.8 1-.8 1.8s-.3 1.4-.7 1.4c-.5 0-1.9 1.8-3.3 4-1.3 2.2-2.8 4-3.2 4-.4 0-.8.5-.8 1.1 0 1.1-2.4 4.4-7.7 10.6-1.8 2.1-3.3 4.4-3.3 5 0 .7-.5 1.3-1 1.3-1.6 0-3.3 4.7-2.5 6.7.5 1 .9 2 1 2.3.4 1.1 2.7 6.6 4 9.5.7 1.6 2.5 5.6 3.9 8.7l2.6 5.8h124.9l-1.7-3.7c-5.2-11.3-40.8-81.9-41.5-82.1-.4-.2-.5-.8-.1-1.3.3-.5 0-.9-.7-.9s-1-.2-.7-.5c.8-.8-20.7-42.8-22.1-43.3-.8-.3-1.1 0-.7.7zM58.6 382.5c-2 4.1-3.5 7.7-3.4 7.9.2.2-.6 1.3-1.6 2.5-1.1 1.2-1.5 2.1-1 2.1s.5.4-.1.8c-1.3.9-17 32.4-16.7 33.4.1.5-.2.8-.7.8-.8 0-2.4 3.7-2.2 5.2.1.5-.4.8-1 .8-.5 0-.8.4-.5.9.4.5.3 1.1-.2 1.3-1 .4-23.7 46.1-23.4 47 .1.5-.2.8-.7.8-.7 0-1.9 2.8-1.9 4.7 0 .3-.4.9-.9 1.2-.5.3-1.5 1.9-2.3 3.6-.8 1.7-1.6 3.3-1.8 3.7-.2.5 27.8.8 62.3.8h62.6l2.1-4.7c1.1-2.7 2.8-6.6 3.8-8.8 1-2.2 3-6.9 4.5-10.5 1.5-3.6 3.8-8.8 5-11.5 1.3-2.8 3.5-7.9 5-11.5 1.5-3.6 3.5-8.3 4.5-10.5.9-2.2 2.3-5.5 3.1-7.3.8-1.7 1.8-3.2 2.2-3.2.5 0 .6-.4.3-.8-.6-1 6.3-17.4 7.6-18.3.6-.3.9-.9.9-1.3-.1-.3-.1-.7 0-.9 1.2-3.8.4-6.3-1.6-4.7-.7.6-2.6 1-4.1 1-1.6 0-8.1.1-14.4.1-14.8.2-19.7-.5-38-5.6-7.1-1.9-26.1-12.1-30.7-16.4-1.2-1.2-2.5-2.1-2.8-2.1-.3 0-2.4-1.8-4.6-4-2.3-2.2-4.5-4-4.9-4-.4 0-2.4 3.4-4.4 7.5z"/></svg>